<?xml version="1.0" standalone="no"?>
<svg version="1.0" xmlns="http://www.w3.org/2000/svg"
  viewBox="0 0 512.000000 512.000000"
 preserveAspectRatio="xMidYMid meet">

<g transform="translate(0.000000,512.000000) scale(0.100000,-0.100000)"
fill="#000000" stroke="none">
<path d="M2310 5114 c-343 -41 -619 -122 -912 -269 -665 -334 -1156 -957
-1333 -1692 -51 -215 -60 -300 -60 -593 0 -293 9 -378 60 -593 116 -481 362
-911 716 -1252 385 -371 847 -600 1394 -692 158 -26 612 -26 770 0 577 97
1069 352 1460 758 371 385 600 847 692 1394 26 157 26 609 0 775 -42 263 -112
482 -237 735 -142 290 -263 458 -490 685 -227 227 -395 348 -685 490 -190 94
-311 139 -489 185 -219 56 -313 67 -596 70 -140 2 -271 1 -290 -1z m630 -1159
c319 -43 582 -192 776 -441 170 -218 254 -484 241 -768 -7 -155 -31 -270 -85
-400 -147 -358 -466 -621 -847 -700 -227 -47 -462 -22 -691 74 l-91 38 -289
-289 c-325 -325 -337 -334 -459 -333 -109 1 -184 43 -249 139 -64 94 -66 220
-6 315 16 25 148 164 294 309 l264 264 -43 81 c-148 275 -176 625 -75 928 60
177 151 322 289 458 201 198 430 302 731 333 76 8 139 6 240 -8z"/>
<path d="M2740 3453 c-243 -22 -440 -152 -540 -357 -53 -108 -70 -181 -70
-296 0 -195 55 -326 195 -465 140 -140 270 -195 466 -195 206 0 380 81 510
237 124 150 174 351 135 553 -46 244 -242 452 -476 504 -73 16 -167 24 -220
19z"/>
</g>
</svg>
